<svg xmlns="http://www.w3.org/2000/svg" xmlns:xlink="http://www.w3.org/1999/xlink" width="378" zoomAndPan="magnify" viewBox="0 0 283.5 283.500005" height="378" preserveAspectRatio="xMidYMid meet" version="1.2"><defs><clipPath id="26eb9ee8c0"><path d="M 0 0 L 283 0 L 283 283 L 0 283 Z M 0 0 "/></clipPath></defs><g id="57d2b1cf6d"><path style=" stroke:none;fill-rule:nonzero;fill:#ffffff;fill-opacity:1;" d="M 0 0 L 283 0 L 283 283 L 0 283 Z M 0 0 "/><g clip-rule="nonzero" clip-path="url(#26eb9ee8c0)"><path style=" stroke:none;fill-rule:nonzero;fill:#ffffff;fill-opacity:1;" d="M 0 0 L 283.035156 0 L 283.035156 283.035156 L 0 283.035156 Z M 0 0 "/></g><g style="fill:#6e9aad;fill-opacity:1;"><g transform="translate(9.186052, 198.704644)"><path style="stroke:none" d="M 66.046875 1.625 C 57.835938 1.625 50.234375 0.191406 43.234375 -2.671875 C 36.234375 -5.535156 30.160156 -9.597656 25.015625 -14.859375 C 19.867188 -20.117188 15.863281 -26.363281 13 -33.59375 C 10.132812 -40.832031 8.703125 -48.820312 8.703125 -57.5625 C 8.703125 -64.914062 9.84375 -72.128906 12.125 -79.203125 C 14.40625 -86.285156 17.882812 -92.671875 22.5625 -98.359375 C 27.25 -104.046875 33.207031 -108.570312 40.4375 -111.9375 C 47.675781 -115.300781 56.285156 -116.984375 66.265625 -116.984375 C 75.941406 -116.984375 84.375 -115.335938 91.5625 -112.046875 C 98.757812 -108.765625 104.71875 -104.335938 109.4375 -98.765625 C 114.164062 -93.191406 117.707031 -86.984375 120.0625 -80.140625 C 122.425781 -73.296875 123.609375 -66.3125 123.609375 -59.1875 C 123.609375 -53.15625 122.773438 -47.195312 121.109375 -41.3125 C 119.441406 -35.4375 117.003906 -29.925781 113.796875 -24.78125 C 110.585938 -19.632812 106.640625 -15.066406 101.953125 -11.078125 C 97.273438 -7.097656 91.9375 -3.984375 85.9375 -1.734375 C 79.945312 0.503906 73.316406 1.625 66.046875 1.625 Z M 24.03125 -58.734375 C 24.03125 -52.078125 24.914062 -45.59375 26.6875 -39.28125 C 28.46875 -32.976562 31.117188 -27.3125 34.640625 -22.28125 C 38.160156 -17.25 42.550781 -13.242188 47.8125 -10.265625 C 53.070312 -7.285156 59.148438 -5.796875 66.046875 -5.796875 C 71.921875 -5.796875 77.140625 -6.859375 81.703125 -8.984375 C 86.273438 -11.117188 90.222656 -14.023438 93.546875 -17.703125 C 96.867188 -21.378906 99.59375 -25.519531 101.71875 -30.125 C 103.851562 -34.726562 105.441406 -39.523438 106.484375 -44.515625 C 107.523438 -49.503906 108.046875 -54.394531 108.046875 -59.1875 C 108.046875 -65.144531 107.234375 -71.101562 105.609375 -77.0625 C 103.984375 -83.019531 101.46875 -88.492188 98.0625 -93.484375 C 94.664062 -98.472656 90.316406 -102.476562 85.015625 -105.5 C 79.710938 -108.519531 73.390625 -110.03125 66.046875 -110.03125 C 58.765625 -110.03125 52.492188 -108.554688 47.234375 -105.609375 C 41.972656 -102.671875 37.617188 -98.722656 34.171875 -93.765625 C 30.734375 -88.816406 28.179688 -83.304688 26.515625 -77.234375 C 24.859375 -71.160156 24.03125 -64.992188 24.03125 -58.734375 Z M 24.03125 -58.734375 "/></g></g><g style="fill:#6e9aad;fill-opacity:1;"><g transform="translate(141.488669, 198.704644)"><path style="stroke:none" d="M 66.046875 1.625 C 57.835938 1.625 50.234375 0.191406 43.234375 -2.671875 C 36.234375 -5.535156 30.160156 -9.597656 25.015625 -14.859375 C 19.867188 -20.117188 15.863281 -26.363281 13 -33.59375 C 10.132812 -40.832031 8.703125 -48.820312 8.703125 -57.5625 C 8.703125 -64.914062 9.84375 -72.128906 12.125 -79.203125 C 14.40625 -86.285156 17.882812 -92.671875 22.5625 -98.359375 C 27.25 -104.046875 33.207031 -108.570312 40.4375 -111.9375 C 47.675781 -115.300781 56.285156 -116.984375 66.265625 -116.984375 C 75.941406 -116.984375 84.375 -115.335938 91.5625 -112.046875 C 98.757812 -108.765625 104.71875 -104.335938 109.4375 -98.765625 C 114.164062 -93.191406 117.707031 -86.984375 120.0625 -80.140625 C 122.425781 -73.296875 123.609375 -66.3125 123.609375 -59.1875 C 123.609375 -53.15625 122.773438 -47.195312 121.109375 -41.3125 C 119.441406 -35.4375 117.003906 -29.925781 113.796875 -24.78125 C 110.585938 -19.632812 106.640625 -15.066406 101.953125 -11.078125 C 97.273438 -7.097656 91.9375 -3.984375 85.9375 -1.734375 C 79.945312 0.503906 73.316406 1.625 66.046875 1.625 Z M 24.03125 -58.734375 C 24.03125 -52.078125 24.914062 -45.59375 26.6875 -39.28125 C 28.46875 -32.976562 31.117188 -27.3125 34.640625 -22.28125 C 38.160156 -17.25 42.550781 -13.242188 47.8125 -10.265625 C 53.070312 -7.285156 59.148438 -5.796875 66.046875 -5.796875 C 71.921875 -5.796875 77.140625 -6.859375 81.703125 -8.984375 C 86.273438 -11.117188 90.222656 -14.023438 93.546875 -17.703125 C 96.867188 -21.378906 99.59375 -25.519531 101.71875 -30.125 C 103.851562 -34.726562 105.441406 -39.523438 106.484375 -44.515625 C 107.523438 -49.503906 108.046875 -54.394531 108.046875 -59.1875 C 108.046875 -65.144531 107.234375 -71.101562 105.609375 -77.0625 C 103.984375 -83.019531 101.46875 -88.492188 98.0625 -93.484375 C 94.664062 -98.472656 90.316406 -102.476562 85.015625 -105.5 C 79.710938 -108.519531 73.390625 -110.03125 66.046875 -110.03125 C 58.765625 -110.03125 52.492188 -108.554688 47.234375 -105.609375 C 41.972656 -102.671875 37.617188 -98.722656 34.171875 -93.765625 C 30.734375 -88.816406 28.179688 -83.304688 26.515625 -77.234375 C 24.859375 -71.160156 24.03125 -64.992188 24.03125 -58.734375 Z M 24.03125 -58.734375 "/></g></g><g style="fill:#f1f1f1;fill-opacity:1;"><g transform="translate(132.65249, 197.57929)"><path style="stroke:none" d="M 63.4375 1.5625 C 55.5625 1.5625 48.257812 0.1875 41.53125 -2.5625 C 34.800781 -5.3125 28.960938 -9.210938 24.015625 -14.265625 C 19.078125 -19.328125 15.234375 -25.332031 12.484375 -32.28125 C 9.734375 -39.226562 8.359375 -46.898438 8.359375 -55.296875 C 8.359375 -62.359375 9.453125 -69.289062 11.640625 -76.09375 C 13.835938 -82.894531 17.1875 -89.023438 21.6875 -94.484375 C 26.1875 -99.953125 31.910156 -104.300781 38.859375 -107.53125 C 45.804688 -110.769531 54.070312 -112.390625 63.65625 -112.390625 C 72.945312 -112.390625 81.050781 -110.804688 87.96875 -107.640625 C 94.882812 -104.484375 100.609375 -100.226562 105.140625 -94.875 C 109.671875 -89.53125 113.066406 -83.566406 115.328125 -76.984375 C 117.597656 -70.410156 118.734375 -63.703125 118.734375 -56.859375 C 118.734375 -51.066406 117.929688 -45.34375 116.328125 -39.6875 C 114.734375 -34.039062 112.394531 -28.742188 109.3125 -23.796875 C 106.226562 -18.859375 102.4375 -14.472656 97.9375 -10.640625 C 93.445312 -6.816406 88.320312 -3.828125 82.5625 -1.671875 C 76.800781 0.484375 70.425781 1.5625 63.4375 1.5625 Z M 23.078125 -56.421875 C 23.078125 -50.023438 23.929688 -43.796875 25.640625 -37.734375 C 27.347656 -31.679688 29.894531 -26.238281 33.28125 -21.40625 C 36.664062 -16.570312 40.882812 -12.722656 45.9375 -9.859375 C 50.988281 -7.003906 56.820312 -5.578125 63.4375 -5.578125 C 69.082031 -5.578125 74.097656 -6.597656 78.484375 -8.640625 C 82.867188 -10.679688 86.660156 -13.46875 89.859375 -17 C 93.054688 -20.53125 95.675781 -24.503906 97.71875 -28.921875 C 99.757812 -33.347656 101.28125 -37.957031 102.28125 -42.75 C 103.289062 -47.550781 103.796875 -52.253906 103.796875 -56.859375 C 103.796875 -62.585938 103.015625 -68.3125 101.453125 -74.03125 C 99.890625 -79.75 97.472656 -85.003906 94.203125 -89.796875 C 90.941406 -94.597656 86.765625 -98.445312 81.671875 -101.34375 C 76.578125 -104.238281 70.5 -105.6875 63.4375 -105.6875 C 56.445312 -105.6875 50.425781 -104.273438 45.375 -101.453125 C 40.320312 -98.628906 36.140625 -94.835938 32.828125 -90.078125 C 29.523438 -85.328125 27.070312 -80.035156 25.46875 -74.203125 C 23.875 -68.367188 23.078125 -62.441406 23.078125 -56.421875 Z M 23.078125 -56.421875 "/></g></g><g style="fill:#b2ccd6;fill-opacity:1;"><g transform="translate(23.215755, 197.57929)"><path style="stroke:none" d="M 63.4375 1.5625 C 55.5625 1.5625 48.257812 0.1875 41.53125 -2.5625 C 34.800781 -5.3125 28.960938 -9.210938 24.015625 -14.265625 C 19.078125 -19.328125 15.234375 -25.332031 12.484375 -32.28125 C 9.734375 -39.226562 8.359375 -46.898438 8.359375 -55.296875 C 8.359375 -62.359375 9.453125 -69.289062 11.640625 -76.09375 C 13.835938 -82.894531 17.1875 -89.023438 21.6875 -94.484375 C 26.1875 -99.953125 31.910156 -104.300781 38.859375 -107.53125 C 45.804688 -110.769531 54.070312 -112.390625 63.65625 -112.390625 C 72.945312 -112.390625 81.050781 -110.804688 87.96875 -107.640625 C 94.882812 -104.484375 100.609375 -100.226562 105.140625 -94.875 C 109.671875 -89.53125 113.066406 -83.566406 115.328125 -76.984375 C 117.597656 -70.410156 118.734375 -63.703125 118.734375 -56.859375 C 118.734375 -51.066406 117.929688 -45.34375 116.328125 -39.6875 C 114.734375 -34.039062 112.394531 -28.742188 109.3125 -23.796875 C 106.226562 -18.859375 102.4375 -14.472656 97.9375 -10.640625 C 93.445312 -6.816406 88.320312 -3.828125 82.5625 -1.671875 C 76.800781 0.484375 70.425781 1.5625 63.4375 1.5625 Z M 23.078125 -56.421875 C 23.078125 -50.023438 23.929688 -43.796875 25.640625 -37.734375 C 27.347656 -31.679688 29.894531 -26.238281 33.28125 -21.40625 C 36.664062 -16.570312 40.882812 -12.722656 45.9375 -9.859375 C 50.988281 -7.003906 56.820312 -5.578125 63.4375 -5.578125 C 69.082031 -5.578125 74.097656 -6.597656 78.484375 -8.640625 C 82.867188 -10.679688 86.660156 -13.46875 89.859375 -17 C 93.054688 -20.53125 95.675781 -24.503906 97.71875 -28.921875 C 99.757812 -33.347656 101.28125 -37.957031 102.28125 -42.75 C 103.289062 -47.550781 103.796875 -52.253906 103.796875 -56.859375 C 103.796875 -62.585938 103.015625 -68.3125 101.453125 -74.03125 C 99.890625 -79.75 97.472656 -85.003906 94.203125 -89.796875 C 90.941406 -94.597656 86.765625 -98.445312 81.671875 -101.34375 C 76.578125 -104.238281 70.5 -105.6875 63.4375 -105.6875 C 56.445312 -105.6875 50.425781 -104.273438 45.375 -101.453125 C 40.320312 -98.628906 36.140625 -94.835938 32.828125 -90.078125 C 29.523438 -85.328125 27.070312 -80.035156 25.46875 -74.203125 C 23.875 -68.367188 23.078125 -62.441406 23.078125 -56.421875 Z M 23.078125 -56.421875 "/></g></g></g></svg>