<svg xmlns="http://www.w3.org/2000/svg" xmlns:xlink="http://www.w3.org/1999/xlink" width="378" zoomAndPan="magnify" viewBox="0 0 283.5 283.500005" height="378" preserveAspectRatio="xMidYMid meet" version="1.2"><defs><clipPath id="6f02e4b591"><path d="M 0 0 L 283 0 L 283 283 L 0 283 Z M 0 0 "/></clipPath></defs><g id="65f607e77f"><path style=" stroke:none;fill-rule:nonzero;fill:#ffffff;fill-opacity:1;" d="M 0 0 L 283 0 L 283 283 L 0 283 Z M 0 0 "/><g clip-rule="nonzero" clip-path="url(#6f02e4b591)"><path style=" stroke:none;fill-rule:nonzero;fill:#ffffff;fill-opacity:1;" d="M 0 0 L 283.035156 0 L 283.035156 283.035156 L 0 283.035156 Z M 0 0 "/></g><g style="fill:#90b9ca;fill-opacity:1;"><g transform="translate(15.198819, 188.673167)"><path style="stroke:none" d="M 25.890625 -21.34375 C 25.472656 -21.675781 25.367188 -22.082031 25.578125 -22.5625 C 25.785156 -23.050781 26.144531 -23.234375 26.65625 -23.109375 C 29.175781 -22.484375 31.40625 -22.585938 33.34375 -23.421875 C 35.28125 -24.265625 36.960938 -25.71875 38.390625 -27.78125 C 39.703125 -29.632812 40.472656 -31.738281 40.703125 -34.09375 C 40.929688 -36.457031 40.726562 -38.929688 40.09375 -41.515625 C 39.46875 -44.109375 38.476562 -46.675781 37.125 -49.21875 C 35.78125 -51.769531 34.179688 -54.191406 32.328125 -56.484375 C 30.472656 -58.773438 28.453125 -60.785156 26.265625 -62.515625 C 25.554688 -63.109375 25.472656 -63.738281 26.015625 -64.40625 C 28.671875 -67.144531 30.734375 -70.09375 32.203125 -73.25 C 33.679688 -76.40625 34.773438 -79.769531 35.484375 -83.34375 C 36.203125 -86.925781 36.726562 -90.71875 37.0625 -94.71875 L 11.875 -94.71875 C 11.40625 -94.71875 11.015625 -94.875 10.703125 -95.1875 C 10.390625 -95.507812 10.234375 -95.898438 10.234375 -96.359375 C 10.234375 -96.828125 10.390625 -97.21875 10.703125 -97.53125 C 11.015625 -97.84375 11.40625 -98 11.875 -98 L 37.328125 -98 L 37.390625 -98.515625 C 37.472656 -99.609375 37.859375 -100.414062 38.546875 -100.9375 C 39.242188 -101.46875 40.035156 -101.710938 40.921875 -101.671875 C 41.804688 -101.628906 42.5625 -101.320312 43.1875 -100.75 C 43.820312 -100.1875 44.117188 -99.359375 44.078125 -98.265625 C 43.910156 -93.710938 43.3125 -89.3125 42.28125 -85.0625 C 41.25 -80.8125 39.703125 -76.863281 37.640625 -73.21875 C 35.578125 -69.582031 32.925781 -66.394531 29.6875 -63.65625 C 34.1875 -60.707031 37.8125 -57.429688 40.5625 -53.828125 C 43.320312 -50.234375 45.25 -46.582031 46.34375 -42.875 C 47.445312 -39.175781 47.753906 -35.648438 47.265625 -32.296875 C 46.785156 -28.953125 45.554688 -26.0625 43.578125 -23.625 C 41.890625 -21.601562 39.992188 -20.210938 37.890625 -19.453125 C 35.785156 -18.691406 33.691406 -18.488281 31.609375 -18.84375 C 29.523438 -19.207031 27.617188 -20.039062 25.890625 -21.34375 Z M 15.03125 6.1875 L 15.03125 -87.390625 C 15.03125 -88.359375 15.34375 -89.148438 15.96875 -89.765625 C 16.601562 -90.378906 17.382812 -90.6875 18.3125 -90.6875 C 19.238281 -90.6875 19.992188 -90.378906 20.578125 -89.765625 C 21.171875 -89.148438 21.46875 -88.359375 21.46875 -87.390625 L 21.46875 6.1875 C 21.46875 7.113281 21.171875 7.867188 20.578125 8.453125 C 19.992188 9.046875 19.238281 9.34375 18.3125 9.34375 C 17.382812 9.34375 16.601562 9.046875 15.96875 8.453125 C 15.34375 7.867188 15.03125 7.113281 15.03125 6.1875 Z M 41.171875 2.65625 C 46.472656 -0.125 51.09375 -3.597656 55.03125 -7.765625 C 58.96875 -11.929688 62.132812 -16.25 64.53125 -20.71875 C 65.125 -21.894531 65.863281 -22.609375 66.75 -22.859375 C 67.632812 -23.109375 68.460938 -23.019531 69.234375 -22.59375 C 70.015625 -22.175781 70.570312 -21.546875 70.90625 -20.703125 C 71.25 -19.867188 71.1875 -18.945312 70.71875 -17.9375 C 68.957031 -14.144531 66.550781 -10.722656 63.5 -7.671875 C 60.445312 -4.617188 57.035156 -2.050781 53.265625 0.03125 C 49.492188 2.113281 45.671875 3.578125 41.796875 4.421875 C 41.253906 4.546875 40.910156 4.34375 40.765625 3.8125 C 40.617188 3.289062 40.753906 2.90625 41.171875 2.65625 Z M 43.453125 -58.09375 C 48.878906 -59.0625 54.109375 -60.21875 59.140625 -61.5625 C 64.171875 -62.914062 68.914062 -64.570312 73.375 -66.53125 C 77.84375 -68.488281 81.9375 -70.863281 85.65625 -73.65625 C 89.382812 -76.457031 92.660156 -79.773438 95.484375 -83.609375 C 96.191406 -84.492188 96.96875 -84.957031 97.8125 -85 C 98.65625 -85.039062 99.410156 -84.785156 100.078125 -84.234375 C 100.753906 -83.691406 101.175781 -82.976562 101.34375 -82.09375 C 101.519531 -81.207031 101.25 -80.28125 100.53125 -79.3125 C 97.289062 -74.851562 93.1875 -71.054688 88.21875 -67.921875 C 83.25 -64.785156 77.628906 -62.269531 71.359375 -60.375 L 101.796875 -60.375 L 101.796875 -61.25 C 101.796875 -62.175781 102.085938 -62.929688 102.671875 -63.515625 C 103.265625 -64.109375 104.023438 -64.40625 104.953125 -64.40625 C 105.921875 -64.40625 106.707031 -64.109375 107.3125 -63.515625 C 107.925781 -62.929688 108.234375 -62.175781 108.234375 -61.25 L 108.234375 -27.78125 C 108.234375 -26.851562 107.925781 -26.09375 107.3125 -25.5 C 106.707031 -24.914062 105.921875 -24.625 104.953125 -24.625 C 104.023438 -24.625 103.265625 -24.914062 102.671875 -25.5 C 102.085938 -26.09375 101.796875 -26.851562 101.796875 -27.78125 L 101.796875 -30.3125 L 86.640625 -30.3125 L 86.640625 -9.34375 C 86.640625 -2.65625 84.890625 2.242188 81.390625 5.359375 C 77.898438 8.484375 72.828125 9.347656 66.171875 7.953125 C 65.671875 7.867188 65.421875 7.539062 65.421875 6.96875 C 65.421875 6.40625 65.671875 6.101562 66.171875 6.0625 C 69.878906 5.644531 72.710938 4.75 74.671875 3.375 C 76.628906 2.007812 77.972656 0.0664062 78.703125 -2.453125 C 79.441406 -4.984375 79.8125 -8.207031 79.8125 -12.125 L 79.8125 -30.3125 L 62.015625 -30.3125 L 62.015625 -26.90625 C 62.015625 -25.976562 61.707031 -25.21875 61.09375 -24.625 C 60.488281 -24.039062 59.703125 -23.75 58.734375 -23.75 C 57.804688 -23.75 57.046875 -24.039062 56.453125 -24.625 C 55.867188 -25.21875 55.578125 -25.976562 55.578125 -26.90625 L 55.578125 -57.015625 C 53.640625 -56.722656 51.679688 -56.492188 49.703125 -56.328125 C 47.722656 -56.160156 45.722656 -56.035156 43.703125 -55.953125 C 43.234375 -55.953125 42.894531 -56.109375 42.6875 -56.421875 C 42.476562 -56.734375 42.4375 -57.066406 42.5625 -57.421875 C 42.6875 -57.785156 42.984375 -58.007812 43.453125 -58.09375 Z M 46.34375 -71.109375 C 50.976562 -74.597656 54.6875 -78.382812 57.46875 -82.46875 C 60.25 -86.550781 62.519531 -90.890625 64.28125 -95.484375 C 64.664062 -96.492188 65.265625 -97.164062 66.078125 -97.5 C 66.898438 -97.832031 67.710938 -97.875 68.515625 -97.625 C 69.316406 -97.375 69.9375 -96.878906 70.375 -96.140625 C 70.820312 -95.398438 70.851562 -94.460938 70.46875 -93.328125 C 69.25 -89.460938 67.503906 -85.96875 65.234375 -82.84375 C 62.960938 -79.726562 60.289062 -77.035156 57.21875 -74.765625 C 54.144531 -72.492188 50.816406 -70.6875 47.234375 -69.34375 C 46.691406 -69.164062 46.289062 -69.328125 46.03125 -69.828125 C 45.78125 -70.335938 45.882812 -70.765625 46.34375 -71.109375 Z M 62.015625 -33.59375 L 101.796875 -33.59375 L 101.796875 -43.953125 L 62.015625 -43.953125 Z M 62.015625 -47.234375 L 101.796875 -47.234375 L 101.796875 -57.09375 L 62.015625 -57.09375 Z M 71.734375 -73.625 C 71.234375 -73.757812 70.984375 -74.097656 70.984375 -74.640625 C 70.984375 -75.191406 71.234375 -75.488281 71.734375 -75.53125 C 74.515625 -76.03125 76.535156 -77.046875 77.796875 -78.578125 C 79.054688 -80.117188 79.6875 -82.550781 79.6875 -85.875 L 79.6875 -101.796875 C 79.6875 -102.765625 80.003906 -103.550781 80.640625 -104.15625 C 81.273438 -104.769531 82.054688 -105.078125 82.984375 -105.078125 C 83.898438 -105.078125 84.65625 -104.769531 85.25 -104.15625 C 85.84375 -103.550781 86.140625 -102.765625 86.140625 -101.796875 L 86.140625 -84.75 C 86.140625 -82.132812 85.484375 -79.847656 84.171875 -77.890625 C 82.867188 -75.929688 81.125 -74.539062 78.9375 -73.71875 C 76.75 -72.90625 74.347656 -72.875 71.734375 -73.625 Z M 93.71875 -20.328125 C 93.289062 -20.710938 93.222656 -21.132812 93.515625 -21.59375 C 93.816406 -22.0625 94.21875 -22.1875 94.71875 -21.96875 C 96.820312 -21.132812 99.0625 -19.96875 101.4375 -18.46875 C 103.820312 -16.976562 106.148438 -15.285156 108.421875 -13.390625 C 110.703125 -11.492188 112.742188 -9.515625 114.546875 -7.453125 C 116.359375 -5.390625 117.75 -3.367188 118.71875 -1.390625 C 119.269531 -0.335938 119.382812 0.628906 119.0625 1.515625 C 118.75 2.398438 118.203125 3.070312 117.421875 3.53125 C 116.640625 4 115.796875 4.125 114.890625 3.90625 C 113.992188 3.695312 113.207031 3.066406 112.53125 2.015625 C 111.601562 0.460938 110.398438 -1.289062 108.921875 -3.25 C 107.453125 -5.207031 105.84375 -7.226562 104.09375 -9.3125 C 102.351562 -11.394531 100.585938 -13.394531 98.796875 -15.3125 C 97.003906 -17.226562 95.3125 -18.898438 93.71875 -20.328125 Z M 94.84375 -94.96875 C 94.425781 -95.351562 94.34375 -95.796875 94.59375 -96.296875 C 94.84375 -96.804688 95.304688 -96.914062 95.984375 -96.625 C 97.878906 -95.863281 99.890625 -94.847656 102.015625 -93.578125 C 104.140625 -92.316406 106.210938 -90.875 108.234375 -89.25 C 110.253906 -87.632812 112.070312 -85.878906 113.6875 -83.984375 C 115.3125 -82.085938 116.566406 -80.109375 117.453125 -78.046875 C 117.921875 -77.035156 117.992188 -76.117188 117.671875 -75.296875 C 117.359375 -74.484375 116.832031 -73.875 116.09375 -73.46875 C 115.363281 -73.070312 114.578125 -72.96875 113.734375 -73.15625 C 112.890625 -73.34375 112.148438 -73.960938 111.515625 -75.015625 C 110.085938 -77.460938 108.40625 -79.9375 106.46875 -82.4375 C 104.53125 -84.945312 102.539062 -87.296875 100.5 -89.484375 C 98.457031 -91.671875 96.570312 -93.5 94.84375 -94.96875 Z M 94.84375 -94.96875 "/></g></g><g style="fill:#6e9aad;fill-opacity:1;"><g transform="translate(141.495794, 188.673167)"><path style="stroke:none" d="M 33.21875 9.46875 C 32.25 9.46875 31.445312 9.148438 30.8125 8.515625 C 30.1875 7.890625 29.875 7.09375 29.875 6.125 L 29.875 -43.25 C 29.875 -44.21875 30.1875 -45.019531 30.8125 -45.65625 C 31.445312 -46.289062 32.25 -46.609375 33.21875 -46.609375 C 34.269531 -46.609375 35.109375 -46.289062 35.734375 -45.65625 C 36.367188 -45.019531 36.6875 -44.21875 36.6875 -43.25 L 36.6875 -41.9375 L 91.375 -41.9375 L 91.375 -43.25 C 91.375 -44.21875 91.6875 -45.019531 92.3125 -45.65625 C 92.945312 -46.289062 93.75 -46.609375 94.71875 -46.609375 C 95.769531 -46.609375 96.613281 -46.289062 97.25 -45.65625 C 97.882812 -45.019531 98.203125 -44.21875 98.203125 -43.25 L 98.203125 5.171875 C 98.203125 6.222656 97.882812 7.078125 97.25 7.734375 C 96.613281 8.390625 95.769531 8.71875 94.71875 8.71875 C 93.75 8.71875 92.945312 8.390625 92.3125 7.734375 C 91.6875 7.078125 91.375 6.222656 91.375 5.171875 L 91.375 -0.1875 L 36.6875 -0.1875 L 36.6875 6.125 C 36.6875 7.09375 36.367188 7.890625 35.734375 8.515625 C 35.109375 9.148438 34.269531 9.46875 33.21875 9.46875 Z M 8.59375 -54.0625 C 8.59375 -54.5625 8.757812 -54.988281 9.09375 -55.34375 C 9.425781 -55.707031 9.867188 -55.890625 10.421875 -55.890625 L 71.671875 -55.890625 C 74.828125 -59.253906 77.445312 -62.742188 79.53125 -66.359375 C 81.613281 -69.984375 83.519531 -74.09375 85.25 -78.6875 C 85.707031 -79.863281 86.390625 -80.640625 87.296875 -81.015625 C 88.203125 -81.398438 89.109375 -81.441406 90.015625 -81.140625 C 90.921875 -80.847656 91.613281 -80.289062 92.09375 -79.46875 C 92.582031 -78.644531 92.617188 -77.601562 92.203125 -76.34375 C 90.804688 -72.050781 88.644531 -68.15625 85.71875 -64.65625 C 82.789062 -61.164062 79.5 -58.242188 75.84375 -55.890625 L 109.125 -55.890625 C 110.46875 -55.890625 111.582031 -56.066406 112.46875 -56.421875 C 113.351562 -56.773438 114.21875 -56.953125 115.0625 -56.953125 C 115.894531 -56.953125 116.585938 -56.675781 117.140625 -56.125 C 117.691406 -55.582031 117.96875 -54.894531 117.96875 -54.0625 C 117.96875 -53.21875 117.691406 -52.519531 117.140625 -51.96875 C 116.585938 -51.425781 115.894531 -51.15625 115.0625 -51.15625 C 114.21875 -51.15625 113.351562 -51.332031 112.46875 -51.6875 C 111.582031 -52.039062 110.53125 -52.21875 109.3125 -52.21875 L 10.421875 -52.21875 C 9.867188 -52.21875 9.425781 -52.382812 9.09375 -52.71875 C 8.757812 -53.0625 8.59375 -53.507812 8.59375 -54.0625 Z M 14.90625 -86.015625 C 14.90625 -86.515625 15.070312 -86.929688 15.40625 -87.265625 C 15.738281 -87.609375 16.160156 -87.78125 16.671875 -87.78125 L 102.046875 -87.78125 C 103.304688 -87.78125 104.390625 -87.945312 105.296875 -88.28125 C 106.203125 -88.613281 107.054688 -88.78125 107.859375 -88.78125 C 108.703125 -88.78125 109.394531 -88.523438 109.9375 -88.015625 C 110.488281 -87.515625 110.765625 -86.847656 110.765625 -86.015625 C 110.765625 -85.210938 110.488281 -84.546875 109.9375 -84.015625 C 109.394531 -83.492188 108.703125 -83.234375 107.859375 -83.234375 C 107.054688 -83.234375 106.210938 -83.398438 105.328125 -83.734375 C 104.441406 -84.066406 103.390625 -84.234375 102.171875 -84.234375 L 16.671875 -84.234375 C 16.160156 -84.234375 15.738281 -84.398438 15.40625 -84.734375 C 15.070312 -85.078125 14.90625 -85.503906 14.90625 -86.015625 Z M 32.328125 -79.625 C 31.992188 -80.09375 31.992188 -80.523438 32.328125 -80.921875 C 32.671875 -81.328125 33.070312 -81.398438 33.53125 -81.140625 C 36.144531 -79.753906 38.585938 -78.125 40.859375 -76.25 C 43.128906 -74.375 45.125 -72.363281 46.84375 -70.21875 C 48.570312 -68.070312 49.835938 -65.820312 50.640625 -63.46875 C 51.109375 -62.15625 51.128906 -61.046875 50.703125 -60.140625 C 50.285156 -59.242188 49.632812 -58.625 48.75 -58.28125 C 47.863281 -57.945312 46.957031 -57.9375 46.03125 -58.25 C 45.101562 -58.570312 44.390625 -59.300781 43.890625 -60.4375 C 42.328125 -63.71875 40.671875 -66.863281 38.921875 -69.875 C 37.179688 -72.882812 34.984375 -76.132812 32.328125 -79.625 Z M 36.6875 -3.53125 L 91.375 -3.53125 L 91.375 -19.265625 L 36.6875 -19.265625 Z M 36.6875 -22.609375 L 91.375 -22.609375 L 91.375 -38.640625 L 36.6875 -38.640625 Z M 49.640625 -103.8125 C 49.171875 -104.15625 49.039062 -104.578125 49.25 -105.078125 C 49.46875 -105.585938 49.890625 -105.796875 50.515625 -105.703125 C 52.742188 -105.367188 55.023438 -104.769531 57.359375 -103.90625 C 59.703125 -103.039062 61.894531 -101.957031 63.9375 -100.65625 C 65.976562 -99.351562 67.609375 -97.796875 68.828125 -95.984375 C 69.546875 -94.972656 69.84375 -93.984375 69.71875 -93.015625 C 69.59375 -92.046875 69.203125 -91.253906 68.546875 -90.640625 C 67.890625 -90.035156 67.109375 -89.753906 66.203125 -89.796875 C 65.304688 -89.835938 64.414062 -90.34375 63.53125 -91.3125 C 61.59375 -93.457031 59.472656 -95.601562 57.171875 -97.75 C 54.878906 -99.894531 52.367188 -101.914062 49.640625 -103.8125 Z M 49.640625 -103.8125 "/></g></g></g></svg>