<svg xmlns="http://www.w3.org/2000/svg" xmlns:xlink="http://www.w3.org/1999/xlink" width="378" zoomAndPan="magnify" viewBox="0 0 283.5 283.500005" height="378" preserveAspectRatio="xMidYMid meet" version="1.2"><defs><clipPath id="4e77195dd5"><path d="M 0 0 L 283 0 L 283 283 L 0 283 Z M 0 0 "/></clipPath></defs><g id="b9152ac559"><path style=" stroke:none;fill-rule:nonzero;fill:#ffffff;fill-opacity:1;" d="M 0 0 L 283 0 L 283 283 L 0 283 Z M 0 0 "/><g clip-rule="nonzero" clip-path="url(#4e77195dd5)"><path style=" stroke:none;fill-rule:nonzero;fill:#ffffff;fill-opacity:1;" d="M 0 0 L 283.035156 0 L 283.035156 283.035156 L 0 283.035156 Z M 0 0 "/></g><g style="fill:#b2ccd6;fill-opacity:1;"><g transform="translate(25.783245, 148.529813)"><path style="stroke:none" d="M 23.71875 -19.546875 C 23.332031 -19.859375 23.234375 -20.234375 23.421875 -20.671875 C 23.617188 -21.117188 23.945312 -21.285156 24.40625 -21.171875 C 26.726562 -20.597656 28.773438 -20.695312 30.546875 -21.46875 C 32.316406 -22.238281 33.859375 -23.566406 35.171875 -25.453125 C 36.367188 -27.148438 37.070312 -29.078125 37.28125 -31.234375 C 37.5 -33.398438 37.316406 -35.664062 36.734375 -38.03125 C 36.160156 -40.40625 35.253906 -42.757812 34.015625 -45.09375 C 32.785156 -47.425781 31.320312 -49.644531 29.625 -51.75 C 27.925781 -53.851562 26.070312 -55.691406 24.0625 -57.265625 C 23.40625 -57.804688 23.328125 -58.390625 23.828125 -59.015625 C 26.265625 -61.515625 28.15625 -64.210938 29.5 -67.109375 C 30.851562 -70.003906 31.859375 -73.085938 32.515625 -76.359375 C 33.171875 -79.640625 33.648438 -83.113281 33.953125 -86.78125 L 10.875 -86.78125 C 10.445312 -86.78125 10.085938 -86.921875 9.796875 -87.203125 C 9.515625 -87.492188 9.375 -87.851562 9.375 -88.28125 C 9.375 -88.707031 9.515625 -89.0625 9.796875 -89.34375 C 10.085938 -89.632812 10.445312 -89.78125 10.875 -89.78125 L 34.1875 -89.78125 L 34.25 -90.25 C 34.320312 -91.25 34.675781 -91.988281 35.3125 -92.46875 C 35.945312 -92.957031 36.671875 -93.179688 37.484375 -93.140625 C 38.296875 -93.097656 38.988281 -92.816406 39.5625 -92.296875 C 40.144531 -91.773438 40.414062 -91.015625 40.375 -90.015625 C 40.226562 -85.847656 39.679688 -81.816406 38.734375 -77.921875 C 37.785156 -74.023438 36.363281 -70.410156 34.46875 -67.078125 C 32.582031 -63.742188 30.15625 -60.820312 27.1875 -58.3125 C 31.3125 -55.613281 34.632812 -52.613281 37.15625 -49.3125 C 39.6875 -46.019531 41.453125 -42.675781 42.453125 -39.28125 C 43.460938 -35.882812 43.742188 -32.648438 43.296875 -29.578125 C 42.859375 -26.515625 41.734375 -23.867188 39.921875 -21.640625 C 38.378906 -19.785156 36.640625 -18.507812 34.703125 -17.8125 C 32.773438 -17.125 30.859375 -16.941406 28.953125 -17.265625 C 27.046875 -17.597656 25.300781 -18.359375 23.71875 -19.546875 Z M 13.765625 5.671875 L 13.765625 -80.0625 C 13.765625 -80.945312 14.050781 -81.671875 14.625 -82.234375 C 15.207031 -82.796875 15.925781 -83.078125 16.78125 -83.078125 C 17.625 -83.078125 18.316406 -82.796875 18.859375 -82.234375 C 19.398438 -81.671875 19.671875 -80.945312 19.671875 -80.0625 L 19.671875 5.671875 C 19.671875 6.515625 19.398438 7.207031 18.859375 7.75 C 18.316406 8.289062 17.625 8.5625 16.78125 8.5625 C 15.925781 8.5625 15.207031 8.289062 14.625 7.75 C 14.050781 7.207031 13.765625 6.515625 13.765625 5.671875 Z M 37.71875 2.4375 C 42.582031 -0.113281 46.816406 -3.296875 50.421875 -7.109375 C 54.023438 -10.929688 56.925781 -14.882812 59.125 -18.96875 C 59.664062 -20.050781 60.335938 -20.707031 61.140625 -20.9375 C 61.953125 -21.175781 62.710938 -21.097656 63.421875 -20.703125 C 64.140625 -20.316406 64.65625 -19.738281 64.96875 -18.96875 C 65.28125 -18.195312 65.222656 -17.351562 64.796875 -16.4375 C 63.171875 -12.957031 60.957031 -9.816406 58.15625 -7.015625 C 55.363281 -4.222656 52.242188 -1.875 48.796875 0.03125 C 45.347656 1.9375 41.847656 3.273438 38.296875 4.046875 C 37.796875 4.160156 37.476562 3.976562 37.34375 3.5 C 37.207031 3.019531 37.332031 2.664062 37.71875 2.4375 Z M 39.796875 -53.21875 C 44.773438 -54.101562 49.566406 -55.160156 54.171875 -56.390625 C 58.785156 -57.628906 63.132812 -59.144531 67.21875 -60.9375 C 71.3125 -62.738281 75.0625 -64.921875 78.46875 -67.484375 C 81.882812 -70.046875 84.882812 -73.082031 87.46875 -76.59375 C 88.125 -77.40625 88.835938 -77.828125 89.609375 -77.859375 C 90.378906 -77.898438 91.070312 -77.671875 91.6875 -77.171875 C 92.3125 -76.671875 92.695312 -76.015625 92.84375 -75.203125 C 93 -74.390625 92.75 -73.539062 92.09375 -72.65625 C 89.125 -68.570312 85.363281 -65.09375 80.8125 -62.21875 C 76.257812 -59.34375 71.113281 -57.039062 65.375 -55.3125 L 93.25 -55.3125 L 93.25 -56.109375 C 93.25 -56.960938 93.519531 -57.660156 94.0625 -58.203125 C 94.601562 -58.742188 95.300781 -59.015625 96.15625 -59.015625 C 97.039062 -59.015625 97.757812 -58.742188 98.3125 -58.203125 C 98.875 -57.660156 99.15625 -56.960938 99.15625 -56.109375 L 99.15625 -25.453125 C 99.15625 -24.609375 98.875 -23.914062 98.3125 -23.375 C 97.757812 -22.832031 97.039062 -22.5625 96.15625 -22.5625 C 95.300781 -22.5625 94.601562 -22.832031 94.0625 -23.375 C 93.519531 -23.914062 93.25 -24.609375 93.25 -25.453125 L 93.25 -27.765625 L 79.375 -27.765625 L 79.375 -8.5625 C 79.375 -2.425781 77.769531 2.066406 74.5625 4.921875 C 71.363281 7.773438 66.71875 8.566406 60.625 7.296875 C 60.164062 7.210938 59.9375 6.910156 59.9375 6.390625 C 59.9375 5.867188 60.164062 5.585938 60.625 5.546875 C 64.019531 5.160156 66.613281 4.34375 68.40625 3.09375 C 70.195312 1.84375 71.429688 0.0625 72.109375 -2.25 C 72.785156 -4.570312 73.125 -7.523438 73.125 -11.109375 L 73.125 -27.765625 L 56.8125 -27.765625 L 56.8125 -24.640625 C 56.8125 -23.796875 56.53125 -23.101562 55.96875 -22.5625 C 55.40625 -22.019531 54.679688 -21.75 53.796875 -21.75 C 52.953125 -21.75 52.257812 -22.019531 51.71875 -22.5625 C 51.175781 -23.101562 50.90625 -23.796875 50.90625 -24.640625 L 50.90625 -52.234375 C 49.132812 -51.960938 47.34375 -51.75 45.53125 -51.59375 C 43.71875 -51.445312 41.882812 -51.332031 40.03125 -51.25 C 39.601562 -51.25 39.289062 -51.394531 39.09375 -51.6875 C 38.90625 -51.976562 38.867188 -52.285156 38.984375 -52.609375 C 39.109375 -52.941406 39.378906 -53.144531 39.796875 -53.21875 Z M 42.46875 -65.140625 C 46.707031 -68.335938 50.097656 -71.804688 52.640625 -75.546875 C 55.191406 -79.296875 57.273438 -83.269531 58.890625 -87.46875 C 59.234375 -88.394531 59.78125 -89.007812 60.53125 -89.3125 C 61.289062 -89.625 62.035156 -89.664062 62.765625 -89.4375 C 63.503906 -89.207031 64.070312 -88.753906 64.46875 -88.078125 C 64.875 -87.398438 64.90625 -86.539062 64.5625 -85.5 C 63.445312 -81.957031 61.847656 -78.757812 59.765625 -75.90625 C 57.679688 -73.050781 55.226562 -70.582031 52.40625 -68.5 C 49.59375 -66.414062 46.546875 -64.753906 43.265625 -63.515625 C 42.765625 -63.367188 42.398438 -63.523438 42.171875 -63.984375 C 41.941406 -64.441406 42.039062 -64.828125 42.46875 -65.140625 Z M 56.8125 -30.78125 L 93.25 -30.78125 L 93.25 -40.265625 L 56.8125 -40.265625 Z M 56.8125 -43.265625 L 93.25 -43.265625 L 93.25 -52.296875 L 56.8125 -52.296875 Z M 65.71875 -67.453125 C 65.257812 -67.566406 65.03125 -67.875 65.03125 -68.375 C 65.03125 -68.875 65.257812 -69.144531 65.71875 -69.1875 C 68.257812 -69.65625 70.109375 -70.59375 71.265625 -72 C 72.429688 -73.40625 73.015625 -75.628906 73.015625 -78.671875 L 73.015625 -93.25 C 73.015625 -94.144531 73.300781 -94.867188 73.875 -95.421875 C 74.457031 -95.984375 75.171875 -96.265625 76.015625 -96.265625 C 76.867188 -96.265625 77.5625 -95.984375 78.09375 -95.421875 C 78.632812 -94.867188 78.90625 -94.144531 78.90625 -93.25 L 78.90625 -77.640625 C 78.90625 -75.242188 78.304688 -73.148438 77.109375 -71.359375 C 75.921875 -69.566406 74.320312 -68.289062 72.3125 -67.53125 C 70.3125 -66.78125 68.113281 -66.753906 65.71875 -67.453125 Z M 85.859375 -18.625 C 85.460938 -18.976562 85.398438 -19.363281 85.671875 -19.78125 C 85.941406 -20.207031 86.3125 -20.320312 86.78125 -20.125 C 88.707031 -19.351562 90.757812 -18.285156 92.9375 -16.921875 C 95.113281 -15.554688 97.242188 -14.003906 99.328125 -12.265625 C 101.410156 -10.523438 103.28125 -8.707031 104.9375 -6.8125 C 106.601562 -4.925781 107.878906 -3.078125 108.765625 -1.265625 C 109.265625 -0.304688 109.367188 0.578125 109.078125 1.390625 C 108.785156 2.203125 108.28125 2.816406 107.5625 3.234375 C 106.851562 3.660156 106.082031 3.773438 105.25 3.578125 C 104.425781 3.390625 103.707031 2.8125 103.09375 1.84375 C 102.238281 0.414062 101.132812 -1.191406 99.78125 -2.984375 C 98.4375 -4.773438 96.960938 -6.625 95.359375 -8.53125 C 93.765625 -10.4375 92.144531 -12.265625 90.5 -14.015625 C 88.863281 -15.773438 87.316406 -17.3125 85.859375 -18.625 Z M 86.890625 -87.015625 C 86.503906 -87.359375 86.425781 -87.757812 86.65625 -88.21875 C 86.894531 -88.6875 87.320312 -88.785156 87.9375 -88.515625 C 89.664062 -87.816406 91.503906 -86.890625 93.453125 -85.734375 C 95.398438 -84.578125 97.300781 -83.253906 99.15625 -81.765625 C 101.007812 -80.285156 102.675781 -78.675781 104.15625 -76.9375 C 105.644531 -75.207031 106.796875 -73.394531 107.609375 -71.5 C 108.023438 -70.570312 108.085938 -69.734375 107.796875 -68.984375 C 107.515625 -68.234375 107.035156 -67.675781 106.359375 -67.3125 C 105.679688 -66.945312 104.957031 -66.847656 104.1875 -67.015625 C 103.414062 -67.191406 102.742188 -67.765625 102.171875 -68.734375 C 100.859375 -70.960938 99.3125 -73.222656 97.53125 -75.515625 C 95.757812 -77.816406 93.9375 -79.96875 92.0625 -81.96875 C 90.195312 -83.976562 88.472656 -85.660156 86.890625 -87.015625 Z M 86.890625 -87.015625 "/></g></g><g style="fill:#6e9aad;fill-opacity:1;"><g transform="translate(141.492099, 148.529813)"><path style="stroke:none" d="M 30.4375 8.671875 C 29.539062 8.671875 28.800781 8.378906 28.21875 7.796875 C 27.644531 7.222656 27.359375 6.492188 27.359375 5.609375 L 27.359375 -39.625 C 27.359375 -40.507812 27.644531 -41.238281 28.21875 -41.8125 C 28.800781 -42.394531 29.539062 -42.6875 30.4375 -42.6875 C 31.394531 -42.6875 32.160156 -42.394531 32.734375 -41.8125 C 33.316406 -41.238281 33.609375 -40.507812 33.609375 -39.625 L 33.609375 -38.40625 L 83.71875 -38.40625 L 83.71875 -39.625 C 83.71875 -40.507812 84.003906 -41.238281 84.578125 -41.8125 C 85.160156 -42.394531 85.894531 -42.6875 86.78125 -42.6875 C 87.738281 -42.6875 88.503906 -42.394531 89.078125 -41.8125 C 89.660156 -41.238281 89.953125 -40.507812 89.953125 -39.625 L 89.953125 4.75 C 89.953125 5.707031 89.660156 6.484375 89.078125 7.078125 C 88.503906 7.679688 87.738281 7.984375 86.78125 7.984375 C 85.894531 7.984375 85.160156 7.679688 84.578125 7.078125 C 84.003906 6.484375 83.71875 5.707031 83.71875 4.75 L 83.71875 -0.171875 L 33.609375 -0.171875 L 33.609375 5.609375 C 33.609375 6.492188 33.316406 7.222656 32.734375 7.796875 C 32.160156 8.378906 31.394531 8.671875 30.4375 8.671875 Z M 7.875 -49.515625 C 7.875 -49.984375 8.023438 -50.378906 8.328125 -50.703125 C 8.640625 -51.035156 9.046875 -51.203125 9.546875 -51.203125 L 65.65625 -51.203125 C 68.550781 -54.285156 70.953125 -57.484375 72.859375 -60.796875 C 74.773438 -64.117188 76.519531 -67.878906 78.09375 -72.078125 C 78.519531 -73.160156 79.144531 -73.875 79.96875 -74.21875 C 80.800781 -74.570312 81.632812 -74.613281 82.46875 -74.34375 C 83.300781 -74.070312 83.9375 -73.554688 84.375 -72.796875 C 84.820312 -72.046875 84.851562 -71.09375 84.46875 -69.9375 C 83.1875 -66.007812 81.207031 -62.441406 78.53125 -59.234375 C 75.851562 -56.035156 72.835938 -53.359375 69.484375 -51.203125 L 99.96875 -51.203125 C 101.195312 -51.203125 102.21875 -51.363281 103.03125 -51.6875 C 103.84375 -52.019531 104.632812 -52.1875 105.40625 -52.1875 C 106.175781 -52.1875 106.8125 -51.929688 107.3125 -51.421875 C 107.8125 -50.921875 108.0625 -50.285156 108.0625 -49.515625 C 108.0625 -48.742188 107.8125 -48.109375 107.3125 -47.609375 C 106.8125 -47.109375 106.175781 -46.859375 105.40625 -46.859375 C 104.632812 -46.859375 103.84375 -47.019531 103.03125 -47.34375 C 102.21875 -47.675781 101.253906 -47.84375 100.140625 -47.84375 L 9.546875 -47.84375 C 9.046875 -47.84375 8.640625 -47.992188 8.328125 -48.296875 C 8.023438 -48.609375 7.875 -49.015625 7.875 -49.515625 Z M 13.65625 -78.796875 C 13.65625 -79.253906 13.804688 -79.632812 14.109375 -79.9375 C 14.421875 -80.25 14.804688 -80.40625 15.265625 -80.40625 L 93.484375 -80.40625 C 94.640625 -80.40625 95.632812 -80.5625 96.46875 -80.875 C 97.300781 -81.1875 98.082031 -81.34375 98.8125 -81.34375 C 99.582031 -81.34375 100.21875 -81.109375 100.71875 -80.640625 C 101.21875 -80.179688 101.46875 -79.566406 101.46875 -78.796875 C 101.46875 -78.054688 101.21875 -77.445312 100.71875 -76.96875 C 100.21875 -76.488281 99.582031 -76.25 98.8125 -76.25 C 98.082031 -76.25 97.3125 -76.398438 96.5 -76.703125 C 95.6875 -77.015625 94.722656 -77.171875 93.609375 -77.171875 L 15.265625 -77.171875 C 14.804688 -77.171875 14.421875 -77.320312 14.109375 -77.625 C 13.804688 -77.9375 13.65625 -78.328125 13.65625 -78.796875 Z M 29.625 -72.953125 C 29.3125 -73.378906 29.304688 -73.773438 29.609375 -74.140625 C 29.921875 -74.503906 30.289062 -74.570312 30.71875 -74.34375 C 33.113281 -73.070312 35.347656 -71.578125 37.421875 -69.859375 C 39.503906 -68.140625 41.335938 -66.296875 42.921875 -64.328125 C 44.503906 -62.359375 45.660156 -60.296875 46.390625 -58.140625 C 46.816406 -56.941406 46.835938 -55.925781 46.453125 -55.09375 C 46.066406 -54.269531 45.46875 -53.703125 44.65625 -53.390625 C 43.851562 -53.085938 43.023438 -53.078125 42.171875 -53.359375 C 41.328125 -53.648438 40.671875 -54.316406 40.203125 -55.359375 C 38.773438 -58.367188 37.257812 -61.253906 35.65625 -64.015625 C 34.0625 -66.773438 32.050781 -69.753906 29.625 -72.953125 Z M 33.609375 -3.234375 L 83.71875 -3.234375 L 83.71875 -17.640625 L 33.609375 -17.640625 Z M 33.609375 -20.703125 L 83.71875 -20.703125 L 83.71875 -35.40625 L 33.609375 -35.40625 Z M 45.46875 -95.109375 C 45.039062 -95.421875 44.921875 -95.804688 45.109375 -96.265625 C 45.304688 -96.722656 45.695312 -96.914062 46.28125 -96.84375 C 48.320312 -96.53125 50.410156 -95.976562 52.546875 -95.1875 C 54.691406 -94.40625 56.695312 -93.414062 58.5625 -92.21875 C 60.4375 -91.019531 61.9375 -89.59375 63.0625 -87.9375 C 63.71875 -87.007812 63.984375 -86.101562 63.859375 -85.21875 C 63.742188 -84.332031 63.390625 -83.609375 62.796875 -83.046875 C 62.203125 -82.484375 61.488281 -82.222656 60.65625 -82.265625 C 59.820312 -82.304688 59.003906 -82.769531 58.203125 -83.65625 C 56.421875 -85.625 54.476562 -87.585938 52.375 -89.546875 C 50.28125 -91.515625 47.976562 -93.367188 45.46875 -95.109375 Z M 45.46875 -95.109375 "/></g></g><g style="fill:#6e9aad;fill-opacity:1;"><g transform="translate(70.098381, 236.620308)"><path style="stroke:none" d="M 35.640625 0.875 C 31.210938 0.875 27.109375 0.101562 23.328125 -1.4375 C 19.546875 -2.988281 16.265625 -5.179688 13.484375 -8.015625 C 10.710938 -10.859375 8.554688 -14.226562 7.015625 -18.125 C 5.472656 -22.03125 4.703125 -26.34375 4.703125 -31.0625 C 4.703125 -35.03125 5.316406 -38.925781 6.546875 -42.75 C 7.773438 -46.570312 9.648438 -50.015625 12.171875 -53.078125 C 14.703125 -56.148438 17.921875 -58.59375 21.828125 -60.40625 C 25.734375 -62.226562 30.378906 -63.140625 35.765625 -63.140625 C 40.984375 -63.140625 45.53125 -62.25 49.40625 -60.46875 C 53.289062 -58.695312 56.507812 -56.304688 59.0625 -53.296875 C 61.613281 -50.296875 63.523438 -46.945312 64.796875 -43.25 C 66.066406 -39.550781 66.703125 -35.78125 66.703125 -31.9375 C 66.703125 -28.6875 66.253906 -25.472656 65.359375 -22.296875 C 64.460938 -19.117188 63.144531 -16.140625 61.40625 -13.359375 C 59.675781 -10.585938 57.546875 -8.125 55.015625 -5.96875 C 52.492188 -3.820312 49.613281 -2.144531 46.375 -0.9375 C 43.144531 0.269531 39.566406 0.875 35.640625 0.875 Z M 12.96875 -31.6875 C 12.96875 -28.101562 13.445312 -24.609375 14.40625 -21.203125 C 15.363281 -17.796875 16.789062 -14.734375 18.6875 -12.015625 C 20.59375 -9.304688 22.960938 -7.144531 25.796875 -5.53125 C 28.640625 -3.925781 31.921875 -3.125 35.640625 -3.125 C 38.804688 -3.125 41.617188 -3.695312 44.078125 -4.84375 C 46.546875 -6 48.675781 -7.566406 50.46875 -9.546875 C 52.269531 -11.535156 53.742188 -13.769531 54.890625 -16.25 C 56.046875 -18.738281 56.90625 -21.328125 57.46875 -24.015625 C 58.03125 -26.710938 58.3125 -29.351562 58.3125 -31.9375 C 58.3125 -35.15625 57.875 -38.367188 57 -41.578125 C 56.125 -44.796875 54.765625 -47.75 52.921875 -50.4375 C 51.085938 -53.132812 48.738281 -55.296875 45.875 -56.921875 C 43.019531 -58.554688 39.609375 -59.375 35.640625 -59.375 C 31.710938 -59.375 28.328125 -58.578125 25.484375 -56.984375 C 22.648438 -55.398438 20.300781 -53.269531 18.4375 -50.59375 C 16.582031 -47.925781 15.207031 -44.953125 14.3125 -41.671875 C 13.414062 -38.398438 12.96875 -35.070312 12.96875 -31.6875 Z M 12.96875 -31.6875 "/></g></g><g style="fill:#6e9aad;fill-opacity:1;"><g transform="translate(141.49409, 236.620308)"><path style="stroke:none" d="M 35.640625 0.875 C 31.210938 0.875 27.109375 0.101562 23.328125 -1.4375 C 19.546875 -2.988281 16.265625 -5.179688 13.484375 -8.015625 C 10.710938 -10.859375 8.554688 -14.226562 7.015625 -18.125 C 5.472656 -22.03125 4.703125 -26.34375 4.703125 -31.0625 C 4.703125 -35.03125 5.316406 -38.925781 6.546875 -42.75 C 7.773438 -46.570312 9.648438 -50.015625 12.171875 -53.078125 C 14.703125 -56.148438 17.921875 -58.59375 21.828125 -60.40625 C 25.734375 -62.226562 30.378906 -63.140625 35.765625 -63.140625 C 40.984375 -63.140625 45.53125 -62.25 49.40625 -60.46875 C 53.289062 -58.695312 56.507812 -56.304688 59.0625 -53.296875 C 61.613281 -50.296875 63.523438 -46.945312 64.796875 -43.25 C 66.066406 -39.550781 66.703125 -35.78125 66.703125 -31.9375 C 66.703125 -28.6875 66.253906 -25.472656 65.359375 -22.296875 C 64.460938 -19.117188 63.144531 -16.140625 61.40625 -13.359375 C 59.675781 -10.585938 57.546875 -8.125 55.015625 -5.96875 C 52.492188 -3.820312 49.613281 -2.144531 46.375 -0.9375 C 43.144531 0.269531 39.566406 0.875 35.640625 0.875 Z M 12.96875 -31.6875 C 12.96875 -28.101562 13.445312 -24.609375 14.40625 -21.203125 C 15.363281 -17.796875 16.789062 -14.734375 18.6875 -12.015625 C 20.59375 -9.304688 22.960938 -7.144531 25.796875 -5.53125 C 28.640625 -3.925781 31.921875 -3.125 35.640625 -3.125 C 38.804688 -3.125 41.617188 -3.695312 44.078125 -4.84375 C 46.546875 -6 48.675781 -7.566406 50.46875 -9.546875 C 52.269531 -11.535156 53.742188 -13.769531 54.890625 -16.25 C 56.046875 -18.738281 56.90625 -21.328125 57.46875 -24.015625 C 58.03125 -26.710938 58.3125 -29.351562 58.3125 -31.9375 C 58.3125 -35.15625 57.875 -38.367188 57 -41.578125 C 56.125 -44.796875 54.765625 -47.75 52.921875 -50.4375 C 51.085938 -53.132812 48.738281 -55.296875 45.875 -56.921875 C 43.019531 -58.554688 39.609375 -59.375 35.640625 -59.375 C 31.710938 -59.375 28.328125 -58.578125 25.484375 -56.984375 C 22.648438 -55.398438 20.300781 -53.269531 18.4375 -50.59375 C 16.582031 -47.925781 15.207031 -44.953125 14.3125 -41.671875 C 13.414062 -38.398438 12.96875 -35.070312 12.96875 -31.6875 Z M 12.96875 -31.6875 "/></g></g><g style="fill:#f1f1f1;fill-opacity:1;"><g transform="translate(136.725745, 236.013006)"><path style="stroke:none" d="M 34.234375 0.84375 C 29.984375 0.84375 26.039062 0.101562 22.40625 -1.375 C 18.78125 -2.863281 15.632812 -4.972656 12.96875 -7.703125 C 10.300781 -10.429688 8.222656 -13.671875 6.734375 -17.421875 C 5.253906 -21.171875 4.515625 -25.3125 4.515625 -29.84375 C 4.515625 -33.65625 5.101562 -37.394531 6.28125 -41.0625 C 7.46875 -44.726562 9.273438 -48.035156 11.703125 -50.984375 C 14.128906 -53.929688 17.21875 -56.273438 20.96875 -58.015625 C 24.71875 -59.765625 29.179688 -60.640625 34.359375 -60.640625 C 39.367188 -60.640625 43.738281 -59.785156 47.46875 -58.078125 C 51.195312 -56.378906 54.285156 -54.085938 56.734375 -51.203125 C 59.179688 -48.316406 61.015625 -45.097656 62.234375 -41.546875 C 63.460938 -37.992188 64.078125 -34.375 64.078125 -30.6875 C 64.078125 -27.550781 63.644531 -24.457031 62.78125 -21.40625 C 61.914062 -18.363281 60.648438 -15.507812 58.984375 -12.84375 C 57.328125 -10.175781 55.285156 -7.804688 52.859375 -5.734375 C 50.429688 -3.671875 47.660156 -2.054688 44.546875 -0.890625 C 41.441406 0.265625 38.003906 0.84375 34.234375 0.84375 Z M 12.453125 -30.4375 C 12.453125 -26.988281 12.910156 -23.628906 13.828125 -20.359375 C 14.753906 -17.097656 16.128906 -14.160156 17.953125 -11.546875 C 19.785156 -8.941406 22.0625 -6.867188 24.78125 -5.328125 C 27.507812 -3.785156 30.660156 -3.015625 34.234375 -3.015625 C 37.285156 -3.015625 39.992188 -3.5625 42.359375 -4.65625 C 44.722656 -5.757812 46.765625 -7.265625 48.484375 -9.171875 C 50.210938 -11.078125 51.628906 -13.222656 52.734375 -15.609375 C 53.835938 -17.992188 54.660156 -20.476562 55.203125 -23.0625 C 55.742188 -25.65625 56.015625 -28.195312 56.015625 -30.6875 C 56.015625 -33.769531 55.59375 -36.851562 54.75 -39.9375 C 53.90625 -43.03125 52.597656 -45.867188 50.828125 -48.453125 C 49.066406 -51.046875 46.8125 -53.125 44.0625 -54.6875 C 41.320312 -56.25 38.046875 -57.03125 34.234375 -57.03125 C 30.460938 -57.03125 27.210938 -56.269531 24.484375 -54.75 C 21.753906 -53.226562 19.5 -51.179688 17.71875 -48.609375 C 15.9375 -46.046875 14.613281 -43.1875 13.75 -40.03125 C 12.882812 -36.882812 12.453125 -33.6875 12.453125 -30.4375 Z M 12.453125 -30.4375 "/></g></g><g style="fill:#b2ccd6;fill-opacity:1;"><g transform="translate(77.669361, 236.013006)"><path style="stroke:none" d="M 34.234375 0.84375 C 29.984375 0.84375 26.039062 0.101562 22.40625 -1.375 C 18.78125 -2.863281 15.632812 -4.972656 12.96875 -7.703125 C 10.300781 -10.429688 8.222656 -13.671875 6.734375 -17.421875 C 5.253906 -21.171875 4.515625 -25.3125 4.515625 -29.84375 C 4.515625 -33.65625 5.101562 -37.394531 6.28125 -41.0625 C 7.46875 -44.726562 9.273438 -48.035156 11.703125 -50.984375 C 14.128906 -53.929688 17.21875 -56.273438 20.96875 -58.015625 C 24.71875 -59.765625 29.179688 -60.640625 34.359375 -60.640625 C 39.367188 -60.640625 43.738281 -59.785156 47.46875 -58.078125 C 51.195312 -56.378906 54.285156 -54.085938 56.734375 -51.203125 C 59.179688 -48.316406 61.015625 -45.097656 62.234375 -41.546875 C 63.460938 -37.992188 64.078125 -34.375 64.078125 -30.6875 C 64.078125 -27.550781 63.644531 -24.457031 62.78125 -21.40625 C 61.914062 -18.363281 60.648438 -15.507812 58.984375 -12.84375 C 57.328125 -10.175781 55.285156 -7.804688 52.859375 -5.734375 C 50.429688 -3.671875 47.660156 -2.054688 44.546875 -0.890625 C 41.441406 0.265625 38.003906 0.84375 34.234375 0.84375 Z M 12.453125 -30.4375 C 12.453125 -26.988281 12.910156 -23.628906 13.828125 -20.359375 C 14.753906 -17.097656 16.128906 -14.160156 17.953125 -11.546875 C 19.785156 -8.941406 22.0625 -6.867188 24.78125 -5.328125 C 27.507812 -3.785156 30.660156 -3.015625 34.234375 -3.015625 C 37.285156 -3.015625 39.992188 -3.5625 42.359375 -4.65625 C 44.722656 -5.757812 46.765625 -7.265625 48.484375 -9.171875 C 50.210938 -11.078125 51.628906 -13.222656 52.734375 -15.609375 C 53.835938 -17.992188 54.660156 -20.476562 55.203125 -23.0625 C 55.742188 -25.65625 56.015625 -28.195312 56.015625 -30.6875 C 56.015625 -33.769531 55.59375 -36.851562 54.75 -39.9375 C 53.90625 -43.03125 52.597656 -45.867188 50.828125 -48.453125 C 49.066406 -51.046875 46.8125 -53.125 44.0625 -54.6875 C 41.320312 -56.25 38.046875 -57.03125 34.234375 -57.03125 C 30.460938 -57.03125 27.210938 -56.269531 24.484375 -54.75 C 21.753906 -53.226562 19.5 -51.179688 17.71875 -48.609375 C 15.9375 -46.046875 14.613281 -43.1875 13.75 -40.03125 C 12.882812 -36.882812 12.453125 -33.6875 12.453125 -30.4375 Z M 12.453125 -30.4375 "/></g></g></g></svg>